<?xml version="1.0" encoding="UTF-8"?>
<svg width="188px" height="84px" viewBox="0 0 188 84" version="1.1" xmlns="http://www.w3.org/2000/svg" xmlns:xlink="http://www.w3.org/1999/xlink">
    <!-- Generator: Sketch 49.3 (51167) - http://www.bohemiancoding.com/sketch -->
    <title>trane logo</title>
    <desc>Created with Sketch.</desc>
    <defs>
        <polygon id="path-1" points="0.000116456603 0.141175093 63.1013503 0.141175093 63.1013503 62.3321702 0.000116456603 62.3321702"></polygon>
        <polygon id="path-3" points="4.55696327 4.71204091 4.55696327 0.24677603 0.0307839088 0.24677603 0.0307839088 4.71204091 4.55696327 4.71204091"></polygon>
    </defs>
    <g id="Mocks" stroke="none" stroke-width="1" fill="none" fill-rule="evenodd">
        <g id="Index-PromoLarge-Mitsubishi-Partnership" transform="translate(-301.000000, -139.000000)">
            <g id="Group-Copy-5" transform="translate(83.000000, 95.000000)">
                <g id="trane-logo" transform="translate(218.000000, 44.000000)">
                    <g id="Group-3">
                        <mask id="mask-2" fill="white">
                            <use xlink:href="#path-1"></use>
                        </mask>
                        <g id="Clip-2"></g>
                        <path d="M26.3523047,31.8716354 L63.0990212,31.549496 C63.1001857,31.4458146 63.1013503,31.3417505 63.1013503,31.2380691 C63.1013503,30.3542901 63.063696,29.4808409 62.9907165,28.6165739 L27.686121,28.2500543 C27.5180353,28.2500543 27.3841102,28.1165309 27.3841102,27.9524005 C27.3841102,27.7882702 27.5180353,27.6547468 27.686121,27.6547468 L62.8540741,27.33299 C62.728301,26.3378778 62.5536161,25.3580691 62.3335131,24.3935639 L29.0044098,24.0331657 C28.8374886,24.0331657 28.702399,23.900025 28.702399,23.735512 C28.702399,23.5713816 28.8374886,23.4382409 29.0044098,23.4382409 L62.0151984,23.1214577 C61.7419136,22.1183111 61.417776,21.1373547 61.0466676,20.1782057 L30.3366733,19.8151294 C30.1701404,19.8151294 30.0346625,19.6831364 30.0346625,19.5190061 C30.0346625,19.3548757 30.1701404,19.2213523 30.3366733,19.2213523 L60.5210602,18.9034214 C55.6768537,7.86536561 44.5292395,0.140907281 31.5509275,0.140907281 C16.1025709,0.140907281 3.24770292,11.0844638 0.529605811,25.5336771 L45.8056038,24.9142666 L45.203135,26.823765 L0.424406679,26.1259239 C0.225265889,27.3073566 0.0963872483,28.5102143 0.0377707582,29.732584 L44.476834,29.1089651 L43.8759179,31.018846 L0.0140912489,30.3210049 C0.00632747542,30.6263104 0.000116456603,30.9304681 0.000116456603,31.2380691 C0.000116456603,32.1421253 0.0389353242,33.0385298 0.115796682,33.9219262 L43.1496169,33.3051938 L42.5487009,35.2146922 L0.174413172,34.5260332 C0.304456379,35.7418989 0.505149924,36.9359571 0.773000111,38.1055296 L41.8367628,37.5002748 L41.2358468,39.4097732 L0.925170072,38.7390958 C1.23106275,39.9587874 1.61226403,41.1501675 2.05984557,42.3078798 L40.5044993,41.6965036 L39.903195,43.606002 L2.31100364,42.9353246 C2.81836624,44.169172 3.40647209,45.3643779 4.06484008,46.5132907 L39.1916452,45.8915846 L38.5903409,47.801083 L4.42934925,47.130023 C5.19058724,48.3895038 6.04033226,49.5908312 6.96926776,50.7271185 L37.6718865,50.0874308 L37.0690295,51.9973117 L7.4649847,51.3186 C13.2517133,58.0552153 21.8931814,62.3321702 31.5509275,62.3321702 C45.4166388,62.3321702 57.1927305,53.5181003 61.4243752,41.263031 L23.6862249,40.8999547 C23.519692,40.8999547 23.3842141,40.7664314 23.3842141,40.602301 C23.3842141,40.4385532 23.519692,40.3050299 23.6862249,40.3050299 L61.835467,39.9855686 C62.1203975,39.0237416 62.3599099,38.0427851 62.5508988,37.043847 L25.0184884,36.6830662 C24.8519555,36.6830662 24.7168658,36.5499254 24.7168658,36.385795 C24.7168658,36.2216646 24.8519555,36.0881413 25.0184884,36.0881413 L62.769449,35.7572024 C62.911526,34.7969057 63.0105142,33.8209229 63.0598141,32.8334624 L26.3523047,32.4665602 C26.1857718,32.4665602 26.0506821,32.3330369 26.0506821,32.1689065 C26.0506821,32.0051587 26.1857718,31.8716354 26.3523047,31.8716354" id="Fill-1" fill="#FF2B00" mask="url(#mask-2)"></path>
                    </g>
                    <path d="M134.923248,19.6595745 L125.54497,19.6595745 L112.595745,41.106383 L121.41454,41.106383 L123.424503,37.2390249 L128.896839,37.2390249 L129.1221,41.106383 L136.723404,41.106383 L134.923248,19.6595745 Z M125.66784,32.2123287 L128.575369,26.1321356 L128.709057,32.2123287 L125.66784,32.2123287 Z" id="Fill-4" fill="#FF2B00"></path>
                    <path d="M111.430508,26.7199317 C111.113255,27.7310922 110.458443,27.9590286 109.080233,27.9756607 L107.243387,27.9756607 L108.115831,25.1878818 L109.828918,25.1878818 C111.013251,25.1878818 111.715575,25.8138563 111.430508,26.7199317 M118.737279,25.9684599 C119.240745,23.7348347 118.318873,19.6595745 110.916696,19.6595745 L101.619433,19.6595745 L94.7234043,41.106383 L102.948599,41.106383 L103.014118,41.106383 L105.729157,32.4663473 L108.489408,41.106383 L116.947944,41.106383 L112.899908,32.2584452 C116.724564,31.0926811 118.026909,29.1349988 118.737279,25.9684599" id="Fill-6" fill="#FF2B00"></path>
                    <polygon id="Fill-8" fill="#FF2B00" points="100.978723 19.6595745 80.7616665 19.6595745 78.6382979 26.2474268 85.0742535 26.2474268 80.2764571 41.106383 88.5427303 41.106383 93.3409118 26.2474268 98.8538144 26.2474268"></polygon>
                    <polygon id="Fill-10" fill="#FF2B00" points="179.385751 25.7998702 181.404255 19.6595745 165.247172 19.6595745 158.170213 41.106383 174.350502 41.106383 176.273037 35.2904146 168.234417 35.2904146 168.921543 33.205723 176.932237 33.205723 178.724978 27.7639786 170.71743 27.7639786 171.364437 25.7998702"></polygon>
                    <polygon id="Fill-12" fill="#FF2B00" points="148.708081 41.106383 156.557976 41.106383 163.531915 19.6595745 155.21032 19.6595745 152.297568 29.1589805 149.834422 19.6595745 141.911659 19.6595745 134.93617 41.106383 143.257378 41.106383 146.210827 31.4690031"></polygon>
                    <g id="Group-16" transform="translate(183.191489, 18.765957)">
                        <mask id="mask-4" fill="white">
                            <use xlink:href="#path-3"></use>
                        </mask>
                        <g id="Clip-15"></g>
                        <path d="M1.82664314,2.32062338 L1.82664314,1.522566 L2.35886622,1.522566 C2.63048894,1.522566 2.91903888,1.58198743 2.91903888,1.90113168 C2.91903888,2.29701222 2.62340313,2.32062338 2.29391295,2.32062338 L1.82664314,2.32062338 Z M1.82664314,2.65157322 L2.27541112,2.65157322 L2.95486158,3.7675943 L3.39300085,3.7675943 L2.65922584,2.63307781 C3.03792303,2.58585548 3.32804759,2.38516057 3.32804759,1.92474285 C3.32804759,1.41710279 3.02611334,1.19279672 2.41791463,1.19279672 L1.43613626,1.19279672 L1.43613626,3.7675943 L1.82664314,3.7675943 L1.82664314,2.65157322 Z M2.29903048,4.71204091 C3.51700253,4.71204091 4.557042,3.7675943 4.557042,2.47370244 C4.557042,1.19279672 3.51700253,0.24677603 2.29903048,0.24677603 C1.07042973,0.24677603 0.0307839088,1.19279672 0.0307839088,2.47370244 C0.0307839088,3.7675943 1.07042973,4.71204091 2.29903048,4.71204091 Z M0.479551888,2.47370244 C0.479551888,1.41710279 1.27670554,0.619045403 2.29903048,0.619045403 C3.30993941,0.619045403 4.10709305,1.41710279 4.10709305,2.47370244 C4.10709305,3.5487975 3.30993941,4.34016506 2.29903048,4.34016506 C1.27670554,4.34016506 0.479551888,3.5487975 0.479551888,2.47370244 Z" id="Fill-14" fill="#FF2B00" mask="url(#mask-4)"></path>
                    </g>
                    <polygon id="Fill-17" fill="#FFFFFF" points="2.68085106 81.3191489 4.95314512 70.5957447 7.14893617 70.5957447 4.87664211 81.3191489"></polygon>
                    <path d="M7.50622058,79.6728848 C7.50622058,79.5788574 7.52246078,79.343397 7.57158738,79.155342 L8.4485582,75.2990409 L7.14893617,75.2990409 L7.55534718,73.5587494 L8.85496921,73.5587494 L9.32593502,71.4893617 L11.3892525,71.4893617 L10.9182867,73.5587494 L12.5106383,73.5587494 L12.1042273,75.2990409 L10.5118756,75.2990409 L9.74858623,78.6225198 C9.73234603,78.7165472 9.73234603,78.7949035 9.73234603,78.8889309 C9.73234603,79.296775 9.97594904,79.5475149 10.4956354,79.5475149 C10.7071641,79.5475149 10.9666013,79.4687669 11.0644485,79.3900189 L11.1298153,80.9896611 C10.8370857,81.193779 10.3494736,81.3191489 9.84643344,81.3191489 C8.4485582,81.3191489 7.50622058,80.8016061 7.50622058,79.6728848" id="Fill-19" fill="#FFFFFF"></path>
                    <path d="M14.0323344,75.0638298 L13.4042553,74.3035069 C13.8931102,74.0496699 14.5347977,73.542788 14.7727699,72.9725458 C14.7305491,72.9883858 14.6611114,72.9883858 14.6188906,72.9883858 C14.1582992,72.9883858 13.7528392,72.6399045 13.7528392,71.9583859 C13.7528392,71.213111 14.3676589,70.5957447 14.996087,70.5957447 C15.5686858,70.5957447 16.0851064,71.0392664 16.0851064,71.8946297 C16.0851064,73.0992663 15.1914894,74.4143873 14.0323344,75.0638298" id="Fill-21" fill="#FFFFFF"></path>
                    <path d="M15.1914894,79.9388852 L16.2759686,78.5269096 C16.718769,79.0668059 17.788361,79.7327574 18.8575713,79.7327574 C19.5145192,79.7327574 19.9263999,79.3676733 19.9263999,78.9395616 C19.9263999,77.9085261 16.1690858,78.1626183 16.1690858,75.8623109 C16.1690858,74.5300115 17.2382961,73.2765957 19.2087579,73.2765957 C20.4611959,73.2765957 21.637289,73.7689242 22.3404255,74.5137592 L21.3315277,75.8623109 C20.9807229,75.3866313 20.0642024,74.8625909 19.1625692,74.8625909 C18.4754651,74.8625909 18.0937406,75.180107 18.0937406,75.5769031 C18.0937406,76.5124064 21.8510547,76.3062785 21.8510547,78.6382979 C21.8510547,80.0974451 20.6749616,81.3191489 18.6586929,81.3191489 C17.3142592,81.3191489 16.0160143,80.8426765 15.1914894,79.9388852" id="Fill-23" fill="#FFFFFF"></path>
                    <polygon id="Fill-25" fill="#FFFFFF" points="33.0218275 81.3191489 33.9860263 76.8011766 29.0869172 76.8011766 28.1234956 81.3191489 25.9148936 81.3191489 28.2008336 70.5957447 30.409047 70.5957447 29.5225749 74.8079654 34.4057501 74.8079654 35.3081562 70.5957447 37.5319149 70.5957447 35.2455862 81.3191489"></polygon>
                    <path d="M42.1717232,79.3201053 L42.3616761,78.3846021 C42.0838564,77.9406344 41.4713404,77.6544339 40.7709576,77.6544339 C39.953905,77.6544339 39.4285268,78.1939338 39.4285268,78.9395616 C39.4285268,79.6055131 39.9247376,79.9551376 40.698039,79.9551376 C41.340087,79.9551376 41.8213495,79.700649 42.1717232,79.3201053 Z M41.8067658,81.1284807 L41.9529675,80.3511409 C41.4275893,80.9378124 40.7563739,81.3191489 39.8514545,81.3191489 C38.65559,81.3191489 37.5319149,80.5889807 37.5319149,79.0981215 C37.5319149,77.3535665 38.7430923,76.3058821 40.1434933,76.3058821 C41.1647178,76.3058821 41.9230709,76.6233983 42.5658481,77.3373141 L42.7550717,76.4652348 C42.7700201,76.4014145 42.7846038,76.2107462 42.7846038,76.0997543 C42.7846038,75.4020909 42.0984401,74.9418708 41.135915,74.9418708 C40.4063647,74.9418708 39.7493685,75.2122154 39.1806037,75.672039 L38.7430923,74.2124954 C39.5601448,73.5782559 40.5230345,73.2765957 41.5296753,73.2765957 C43.1929477,73.2765957 44.6808511,73.9584032 44.6808511,75.703751 C44.6808511,75.8777705 44.6374645,76.3221345 44.5933488,76.5282624 L43.6596266,81.1284807 L41.8067658,81.1284807 Z" id="Fill-27" fill="#FFFFFF"></path>
                    <path d="M45.5744681,81.3191489 L47.2864249,73.471894 L49.3182242,73.471894 L49.0943345,74.4954843 C49.7660037,73.7479914 50.5979939,73.2765957 51.8297872,73.2765957 L51.3820078,75.3237763 C51.2540708,75.2917003 50.9662126,75.2263302 50.6463701,75.2263302 C49.8943405,75.2263302 49.1742951,75.6490028 48.7265156,76.1683094 L47.6066672,81.3191489 L45.5744681,81.3191489 Z" id="Fill-29" fill="#FFFFFF"></path>
                    <path d="M52.946714,77.7499428 C52.946714,78.8399635 53.6427151,79.5341512 54.564671,79.5341512 C55.2451802,79.5341512 55.8497414,79.1395022 56.243084,78.6185654 L56.8026809,75.9811258 C56.4849085,75.460189 55.8656111,75.0963226 55.0940399,75.0963226 C53.8391975,75.0963226 52.946714,76.3438082 52.946714,77.7499428 M57.1200756,74.512242 L57.9369889,70.5957447 L59.8723404,70.5957447 L57.6343304,81.1293227 L55.6989789,81.1293227 L55.9105753,80.182165 C55.2905222,80.9394965 54.5952769,81.3191489 53.7182853,81.3191489 C52.0701003,81.3191489 50.9361702,80.182165 50.9361702,78.1607725 C50.9361702,75.8544434 52.3115469,73.3121142 54.7917593,73.3121142 C55.7745491,73.3121142 56.6364266,73.7541211 57.1200756,74.512242" id="Fill-31" fill="#FFFFFF"></path>
                    <polygon id="Fill-33" fill="#FFFFFF" points="66.4326168 81.3191489 68.3511347 72.6058305 65.2340426 72.6058305 65.6655293 70.5957447 74.1702128 70.5957447 73.7391256 72.6058305 70.6212344 72.6058305 68.7186975 81.3191489"></polygon>
                    <path d="M77.4861347,76.8616345 C77.4861347,75.7509226 76.8351871,75.0691151 75.7505325,75.0691151 C74.4339221,75.0691151 73.5192651,76.3542429 73.5192651,77.7341102 C73.5192651,78.8444257 74.1857023,79.5266296 75.2703569,79.5266296 C76.5873545,79.5266296 77.4861347,78.2411054 77.4861347,76.8616345 M71.4893617,77.8292461 C71.4893617,75.4500552 73.2869221,73.2765957 75.8124906,73.2765957 C78.1990405,73.2765957 79.5319149,74.751599 79.5319149,76.7661022 C79.5319149,79.1456895 77.7339673,81.3191489 75.192522,81.3191489 C72.8067466,81.3191489 71.4893617,79.8437493 71.4893617,77.8292461" id="Fill-35" fill="#FFFFFF"></path>
                    <path d="M83.106383,79.3732931 L84.5105244,77.7389764 C85.2446977,78.7039311 86.6328874,79.3577356 88.1012341,79.3577356 C89.2501495,79.3577356 89.7127465,78.7194886 89.7127465,78.1901443 C89.7127465,76.7273492 84.526476,77.0077734 84.526476,73.9725027 C84.526476,72.2607874 86.0745807,70.5957447 88.691444,70.5957447 C90.3831134,70.5957447 91.979073,71.2020987 92.9361702,72.2763449 L91.5160772,73.8636001 C90.7180974,72.9612644 89.4260162,72.5408226 88.3405084,72.5408226 C87.526577,72.5408226 86.9200166,73.0083259 86.9200166,73.5683963 C86.9200166,74.9222888 92.1222388,74.7507673 92.1222388,77.7545339 C92.1222388,79.6537172 90.55898,81.3191489 87.9253675,81.3191489 C85.8353064,81.3191489 84.0000725,80.5253269 83.106383,79.3732931" id="Fill-37" fill="#FFFFFF"></path>
                    <path d="M93.2934546,79.6728848 C93.2934546,79.5788574 93.3096948,79.343397 93.3588214,79.155342 L94.2353862,75.2990409 L92.9361702,75.2990409 L93.3425812,73.5587494 L94.6417972,73.5587494 L95.1131691,71.4893617 L97.1764865,71.4893617 L96.7055207,73.5587494 L98.2978723,73.5587494 L97.8910553,75.2990409 L96.2987037,75.2990409 L95.5354143,78.6225198 C95.5195801,78.7165472 95.5195801,78.7949035 95.5195801,78.8889309 C95.5195801,79.296775 95.7631831,79.5475149 96.2828695,79.5475149 C96.4943981,79.5475149 96.7538353,79.4687669 96.8516825,79.3900189 L96.9170493,80.9896611 C96.6239137,81.193779 96.1367077,81.3191489 95.6336675,81.3191489 C94.2353862,81.3191489 93.2934546,80.8016061 93.2934546,79.6728848" id="Fill-39" fill="#FFFFFF"></path>
                    <path d="M104.294547,76.8616345 C104.294547,75.7509226 103.643568,75.0691151 102.559248,75.0691151 C101.242187,75.0691151 100.327873,76.3542429 100.327873,77.7341102 C100.327873,78.8444257 100.993956,79.5266296 102.078662,79.5266296 C103.396111,79.5266296 104.294547,78.2411054 104.294547,76.8616345 M98.2978723,77.8292461 C98.2978723,75.4500552 100.095132,73.2765957 102.621209,73.2765957 C105.007874,73.2765957 106.340426,74.751599 106.340426,76.7661022 C106.340426,79.1456895 104.542779,81.3191489 102.001211,81.3191489 C99.6149334,81.3191489 98.2978723,79.8437493 98.2978723,77.8292461" id="Fill-41" fill="#FFFFFF"></path>
                    <path d="M112.368858,76.8459332 C112.368858,75.7558724 111.68676,75.0612645 110.748023,75.0612645 C110.081822,75.0612645 109.475428,75.4563227 109.081386,75.976884 L108.50641,78.6144207 C108.824369,79.136166 109.445525,79.4992565 110.217712,79.4992565 C111.490306,79.4992565 112.368858,78.2517249 112.368858,76.8459332 M108.203213,80.0833586 L107.370084,84 L105.446809,84 L107.688043,73.4664289 L109.611697,73.4664289 L109.399724,74.4140162 C110.02088,73.6558674 110.73326,73.2765957 111.611434,73.2765957 C113.262172,73.2765957 114.382979,74.4140162 114.382979,76.4354831 C114.382979,78.7253212 113.020296,81.2839252 110.53605,81.2839252 C109.551512,81.2839252 108.688101,80.8415073 108.203213,80.0833586" id="Fill-43" fill="#FFFFFF"></path>
                    <path d="M125.225399,72.8789527 L122.637004,77.4931784 L125.86088,77.4931784 L125.225399,72.8789527 Z M126.294602,81.3191489 L126.030883,79.5023855 L121.599168,79.5023855 L120.576434,81.3191489 L117.957447,81.3191489 L124.217768,70.5957447 L126.976166,70.5957447 L128.680851,81.3191489 L126.294602,81.3191489 Z" id="Fill-45" fill="#FFFFFF"></path>
                    <polygon id="Fill-47" fill="#FFFFFF" points="136.134691 81.3191489 138.053123 72.6058305 134.93617 72.6058305 135.367638 70.5957447 143.87234 70.5957447 143.440873 72.6058305 140.323121 72.6058305 138.421069 81.3191489"></polygon>
                    <path d="M141.191489,81.3191489 L142.903446,73.471894 L144.935245,73.471894 L144.711356,74.4954843 C145.383025,73.7479914 146.214615,73.2765957 147.446809,73.2765957 L146.999029,75.3237763 C146.871092,75.2917003 146.583234,75.2263302 146.263391,75.2263302 C145.511362,75.2263302 144.791316,75.6490028 144.343537,76.1683094 L143.223289,81.3191489 L141.191489,81.3191489 Z" id="Fill-49" fill="#FFFFFF"></path>
                    <path d="M151.192763,79.3201053 L151.382706,78.3846021 C151.105265,77.9406344 150.492416,77.6544339 149.791704,77.6544339 C148.975058,77.6544339 148.449707,78.1939338 148.449707,78.9395616 C148.449707,79.6055131 148.945892,79.9551376 149.719519,79.9551376 C150.361169,79.9551376 150.842043,79.700649 151.192763,79.3201053 Z M150.827824,81.1284807 L150.973654,80.3511409 C150.448667,80.9378124 149.777486,81.3191489 148.872977,81.3191489 C147.676445,81.3191489 146.553191,80.5889807 146.553191,79.0981215 C146.553191,77.3535665 147.764672,76.3058821 149.164637,76.3058821 C150.185809,76.3058821 150.944124,76.6233983 151.586868,77.3373141 L151.776082,76.4652348 C151.79103,76.4014145 151.805612,76.2107462 151.805612,76.0997543 C151.805612,75.4020909 151.119848,74.9418708 150.157008,74.9418708 C149.427495,74.9418708 148.770532,75.2122154 148.202161,75.672039 L147.764672,74.2124954 C148.581318,73.5782559 149.544159,73.2765957 150.550748,73.2765957 C152.2143,73.2765957 153.702128,73.9584032 153.702128,75.703751 C153.702128,75.8777705 153.658379,76.3221345 153.614265,76.5282624 L152.680591,81.1284807 L150.827824,81.1284807 Z" id="Fill-51" fill="#FFFFFF"></path>
                    <path d="M159.524259,81.3191489 L160.506864,76.5589059 C160.537465,76.4127367 160.567687,76.2503265 160.567687,76.1037513 C160.567687,75.3895525 160.023306,75.1126431 159.312325,75.1126431 C158.662544,75.1126431 158.027496,75.5836327 157.604383,76.0225462 L156.515999,81.3191489 L154.595745,81.3191489 L156.213398,73.471894 L158.133274,73.471894 L157.921718,74.4792433 C158.496321,73.8945666 159.28248,73.2765957 160.355753,73.2765957 C161.761849,73.2765957 162.638298,74.0565707 162.638298,75.2754593 C162.638298,75.4216285 162.593342,75.7626899 162.562742,75.9251001 L161.459247,81.3191489 L159.524259,81.3191489 Z" id="Fill-53" fill="#FFFFFF"></path>
                    <path d="M170.619623,76.5603707 C170.635425,76.5282624 170.635425,76.4331264 170.635425,76.4014145 C170.635425,75.6240747 170.051956,74.9264112 168.819783,74.9264112 C167.700657,74.9264112 166.873671,75.7192106 166.711596,76.5603707 L170.603415,76.5603707 L170.619623,76.5603707 Z M164.425532,77.8764177 C164.425532,75.3862349 166.339229,73.2765957 168.949038,73.2765957 C170.95998,73.2765957 172.468085,74.5458675 172.468085,76.6872186 C172.468085,77.1470423 172.370435,77.7182542 172.3052,77.956094 L166.484691,77.956094 L166.484691,78.1467623 C166.484691,78.7964613 167.182018,79.6693335 168.64069,79.6693335 C169.338827,79.6693335 170.132588,79.4782688 170.619623,79.1135811 L171.251714,80.5259532 C170.489963,81.0329484 169.45228,81.3191489 168.479021,81.3191489 C166.014675,81.3191489 164.425532,80.0181652 164.425532,77.8764177 Z" id="Fill-55" fill="#FFFFFF"></path>
                    <path d="M171.574468,80.0853738 C171.574468,79.2954619 172.249304,78.6382979 173.038805,78.6382979 C173.712409,78.6382979 174.255319,79.1976476 174.255319,79.871251 C174.255319,80.660752 173.580894,81.3191489 172.792215,81.3191489 C172.117378,81.3191489 171.574468,80.7597992 171.574468,80.0853738" id="Fill-57" fill="#FFFFFF"></path>
                    <path d="M174.499931,72.5176536 L174.044676,72.5176536 L173.884433,73.2258273 L174.406886,73.2258273 C174.702266,73.2258273 174.861771,73.0319841 174.861771,72.8126644 C174.861771,72.65279 174.769465,72.5176536 174.499931,72.5176536 Z M174.525038,74.304703 L174.170582,73.4953616 L173.825357,73.4953616 L173.648128,74.304703 L173.336503,74.304703 L173.782896,72.2566114 L174.575622,72.2566114 C174.9718,72.2566114 175.19112,72.5176536 175.19112,72.7964185 C175.19112,73.1752435 174.861771,73.4872387 174.516546,73.4872387 L174.887986,74.304703 L174.525038,74.304703 Z M174.246273,71.7843725 C173.420686,71.7843725 172.763465,72.4419624 172.763465,73.2764111 C172.763465,74.0946139 173.420686,74.7684497 174.246273,74.7684497 C175.072968,74.7684497 175.747542,74.0946139 175.747542,73.2764111 C175.747542,72.4419624 175.072968,71.7843725 174.246273,71.7843725 Z M174.246273,75.0638298 C173.260442,75.0638298 172.468085,74.2626113 172.468085,73.2764111 C172.468085,72.2817187 173.269304,71.4893617 174.255504,71.4893617 C175.249827,71.4893617 176.042553,72.2817187 176.042553,73.2764111 C176.042553,74.2626113 175.241704,75.0638298 174.246273,75.0638298 Z" id="Fill-59" fill="#FFFFFF"></path>
                </g>
            </g>
        </g>
    </g>
</svg>