<?xml version="1.0" encoding="UTF-8"?>
<svg width="135px" height="116px" viewBox="0 0 135 116" version="1.1" xmlns="http://www.w3.org/2000/svg" xmlns:xlink="http://www.w3.org/1999/xlink">
    <!-- Generator: Sketch 48.1 (47250) - http://www.bohemiancoding.com/sketch -->
    <title>Page 1</title>
    <desc>Created with Sketch.</desc>
    <defs>
        <polygon id="path-1" points="0 115.412383 134.55021 115.412383 134.55021 -2.84217094e-14 0 -2.84217094e-14"></polygon>
    </defs>
    <g id="footer" stroke="none" stroke-width="1" fill="none" fill-rule="evenodd" transform="translate(-1284.000000, -99.000000)">
        <g id="Page-1" transform="translate(1284.000000, 99.000000)">
            <path d="M23.0759159,56.3265421 C19.5697009,56.3265421 17.8014533,53.8738318 17.8014533,50.5556075 C17.8014533,47.8070327 19.2997009,45.280514 22.2961963,45.2836682 C23.5503084,45.280514 24.7526916,45.6684813 25.8900981,46.1636916 L26.823743,43.8491355 C25.4989766,43.2561449 23.798229,42.798785 22.3422477,42.798785 C17.6172477,42.798785 14.7538598,46.2545327 14.7538598,50.8256075 C14.7538598,55.5323131 18.0096308,58.8051168 22.710028,58.8051168 C24.1439299,58.8051168 25.5784626,58.4127336 26.8660093,57.7787383 L26.1436963,55.5903505 C25.1848178,56.0514953 24.1439299,56.3265421 23.0759159,56.3265421" id="Fill-1" fill="#FFFFFF"></path>
            <path d="M32.9756425,56.4850724 C30.94875,56.4850724 30.2888902,54.6455397 30.2888902,52.9176659 C30.2888902,51.1923154 30.94875,49.3206098 32.9756425,49.3206098 C34.99875,49.3206098 35.6598715,51.2093481 35.6598715,52.9176659 C35.6598715,54.6455397 34.99875,56.4850724 32.9756425,56.4850724 M32.9756425,46.961264 C29.4927687,46.961264 27.2684229,49.5054463 27.2684229,52.8911706 C27.2684229,56.2731098 29.4927687,58.8267547 32.9756425,58.8267547 C36.455993,58.8267547 38.6797079,56.3033902 38.6797079,52.8911706 C38.6797079,49.4852593 36.455993,46.961264 32.9756425,46.961264" id="Fill-3" fill="#FFFFFF"></path>
            <path d="M45.3515467,46.9612009 C43.6672009,46.9612009 41.7759393,47.5302196 40.1855888,48.0910374 C40.1855888,48.0910374 40.3502383,49.1495888 40.3502383,49.6864346 L40.3502383,58.5730935 L43.0735794,58.5730935 L43.0735794,50.3235841 C43.0735794,50.165243 43.0231121,49.8491916 43.0231121,49.8491916 C43.7574112,49.5722523 44.5491168,49.3495654 45.3174813,49.3495654 C46.6643271,49.3495654 47.5758925,50.0535841 47.5758925,51.4445888 L47.5758925,58.5730935 L50.3055421,58.5730935 L50.3055421,51.0042617 C50.3023879,47.8677196 48.1209393,46.9612009 45.3515467,46.9612009" id="Fill-5" fill="#FFFFFF"></path>
            <path d="M56.8724089,56.5966051 C56.1860537,56.5966051 55.8239509,56.3266051 55.8239509,55.6232173 L55.8239509,49.5784977 L59.0084369,49.5784977 L59.0084369,47.2109509 L55.8239509,47.2109509 L55.8239509,44.1009042 L53.0949322,44.1009042 L53.0949322,47.2551098 L51.7998154,47.3251332 L51.7998154,49.4851332 L53.0949322,49.5551565 L53.0949322,55.8244556 C53.0949322,58.0311379 54.5244182,58.9818154 56.5967313,58.9818154 C57.6691612,58.9818154 58.6425491,58.6884743 59.6443248,58.3484509 L58.8980397,56.1411379 C58.2350257,56.3701332 57.5770584,56.5966051 56.8724089,56.5966051" id="Fill-7" fill="#FFFFFF"></path>
            <path d="M65.8748271,46.9612009 C64.0813458,46.9612009 62.3269766,47.5302196 60.6823738,48.211528 C60.6823738,48.211528 60.8949673,49.3495654 60.8949673,49.9154299 L60.8949673,58.5730935 L63.6183084,58.5730935 L63.6183084,49.8491916 C63.6183084,49.7747523 63.5955981,49.6201963 63.5955981,49.6201963 C64.2611355,49.4170654 64.9626308,49.3205467 65.6464626,49.3205467 C66.1460888,49.3205467 66.7762991,49.4404065 67.1453411,49.557743 L67.9584953,47.2103832 C67.348472,47.0558271 66.5826308,46.9612009 65.8748271,46.9612009" id="Fill-9" fill="#FFFFFF"></path>
            <path d="M73.5444673,56.4850724 C71.5169439,56.4850724 70.8602383,54.6455397 70.8602383,52.9176659 C70.8602383,51.1891612 71.5169439,49.3206098 73.5444673,49.3206098 C75.5663131,49.3206098 76.2230187,51.2093481 76.2230187,52.9176659 C76.2230187,54.6455397 75.5663131,56.4850724 73.5444673,56.4850724 M73.5444673,46.961264 C70.0590701,46.961264 67.8422944,49.5054463 67.8422944,52.8911706 C67.8422944,56.2731098 70.0590701,58.8267547 73.5444673,58.8267547 C77.0204019,58.8267547 79.2447477,56.3033902 79.2447477,52.8911706 C79.2485327,49.4852593 77.0204019,46.961264 73.5444673,46.961264" id="Fill-11" fill="#FFFFFF"></path>
            <mask id="mask-2" fill="white">
                <use xlink:href="#path-1"></use>
            </mask>
            <g id="Clip-14"></g>
            <polygon id="Fill-13" fill="#FFFFFF" mask="url(#mask-2)" points="81.0006308 58.5729673 83.5265187 58.5729673 83.5265187 41.8853271 81.0006308 41.8853271"></polygon>
            <path d="M88.271264,50.2561472 C88.271264,49.4411005 88.9942079,49.2322921 89.6748855,49.2322921 C90.4495584,49.2354463 91.4481799,49.4852593 92.1786939,49.7609369 L92.9521051,47.6387874 C92.0821752,47.2344182 90.8842079,46.961264 89.6748855,46.961264 C87.8832967,46.961264 85.4678061,47.8917547 85.4678061,50.2353294 C85.4678061,53.9617079 90.4211706,53.3478995 90.4211706,55.3722687 C90.4211706,56.3702593 89.5405164,56.6169182 88.6964509,56.6169182 C87.8353528,56.6169182 86.7660771,56.2857266 85.9699556,55.9425491 L85.1814042,58.0754229 C86.3112407,58.5075491 87.6378995,58.8267547 88.9298621,58.8267547 C90.995236,58.8267547 93.4447921,57.9397921 93.4447921,55.4082266 C93.4447921,51.3008201 88.271264,52.1663341 88.271264,50.2561472" id="Fill-15" fill="#FFFFFF" mask="url(#mask-2)"></path>
            <path d="M3.40528037,33.8795748 C3.40528037,35.7039673 3.26207944,36.8401121 1.69128505,37.3908364 C1.22509346,37.555486 0.558294393,37.7056262 0,37.7958364 L0.492686916,40.2517009 C1.35567757,40.0309065 2.32654206,39.7646916 2.98324766,39.5413738 C5.78292056,38.5389673 6.2238785,36.5051355 6.2238785,33.4424019 L6.2238785,22.2878692 L3.40528037,22.2878692 L3.40528037,33.8795748 Z" id="Fill-16" fill="#FFFFFF" mask="url(#mask-2)"></path>
            <path d="M13.6262313,35.6162173 C11.6056472,35.6162173 10.9495724,33.7766846 10.9495724,32.0488107 C10.9495724,30.3215678 11.6056472,28.4580631 13.6262313,28.4580631 C15.6588014,28.4580631 16.3110911,30.3436472 16.3110911,32.0488107 C16.3110911,33.7766846 15.6588014,35.6162173 13.6262313,35.6162173 M19.3378668,32.0254696 C19.3378668,28.6107266 17.1103668,26.0924089 13.6262313,26.0924089 C10.149035,26.0924089 7.92595093,28.6397453 7.92595093,32.0254696 C7.92595093,35.4111939 10.149035,37.9515911 13.6262313,37.9515911 C17.1103668,37.9515911 19.3378668,35.4351659 19.3378668,32.0254696" id="Fill-17" fill="#FFFFFF" mask="url(#mask-2)"></path>
            <path d="M23.8367734,29.2933598 C24.5849509,28.8391542 25.5633855,28.4581262 26.4535023,28.4581262 C27.5833388,28.4581262 28.3554883,29.2763271 28.3554883,30.5266542 L28.3554883,37.702472 L31.0851379,37.702472 L31.0851379,30.1153458 C31.0851379,27.5926121 29.7515397,26.092472 27.2010491,26.092472 C26.0371472,26.092472 24.8795537,26.3921215 23.8367734,26.8374953 L23.8367734,21.0236636 L21.1083855,21.0236636 L21.1083855,37.702472 L23.8367734,37.702472 L23.8367734,29.2933598 Z" id="Fill-18" fill="#FFFFFF" mask="url(#mask-2)"></path>
            <path d="M40.6254743,37.702472 L43.3557547,37.702472 L43.3557547,30.1355327 C43.3557547,27.0002523 41.1755678,26.092472 38.4049136,26.0956262 C36.7243528,26.092472 34.8368762,26.6595981 33.2389556,27.2254626 C33.2389556,27.2254626 33.4023435,28.2701355 33.4023435,28.8189673 L33.4023435,37.702472 L36.1370397,37.702472 L36.1370397,29.4611636 C36.1370397,29.2933598 36.0834182,28.9766776 36.0834182,28.9766776 C36.8126706,28.7073084 37.605007,28.4789439 38.3822033,28.4789439 C39.721479,28.4789439 40.6254743,29.1829626 40.6254743,30.567028 L40.6254743,37.702472 Z" id="Fill-19" fill="#FFFFFF" mask="url(#mask-2)"></path>
            <path d="M48.4533925,35.7544977 C47.5866168,35.7544977 46.5261729,35.4113201 45.7250047,35.0706659 L44.9301449,37.2041706 C46.0669206,37.635035 47.387271,37.9517173 48.6798645,37.9517173 C50.7534393,37.9548715 53.2048879,37.0685397 53.2048879,34.5458061 C53.2048879,30.4352453 48.0282056,31.2976051 48.0282056,29.3880491 C48.0282056,28.5666939 48.7473645,28.3604089 49.4343505,28.3604089 C50.202715,28.3604089 51.2095374,28.6108528 51.9368972,28.8922079 L52.700215,26.7769977 C51.8473178,26.3631659 50.635472,26.092535 49.4343505,26.092535 C47.6364533,26.0956893 45.2241168,27.0255491 45.2241168,29.3640771 C45.2241168,33.0936098 50.1856822,32.477278 50.1856822,34.5016472 C50.1856822,35.5027921 49.2943037,35.7544977 48.4533925,35.7544977" id="Fill-20" fill="#FFFFFF" mask="url(#mask-2)"></path>
            <path d="M60.1242687,35.6162173 C58.0992687,35.6162173 57.4368855,33.7766846 57.4444556,32.0488107 C57.4444556,30.3215678 58.0992687,28.4580631 60.1242687,28.4580631 C62.1416986,28.4580631 62.8015584,30.3436472 62.8015584,32.0488107 C62.8015584,33.7766846 62.1416986,35.6162173 60.1242687,35.6162173 M65.8314883,32.0254696 C65.8314883,28.6107266 63.5957874,26.0924089 60.1242687,26.0924089 C56.6401332,26.0955631 54.4107407,28.6397453 54.4107407,32.0254696 C54.4107407,35.4111939 56.6401332,37.9515911 60.1242687,37.9547453 C63.5957874,37.9515911 65.8314883,35.4351659 65.8314883,32.0254696" id="Fill-21" fill="#FFFFFF" mask="url(#mask-2)"></path>
            <path d="M67.620743,37.702472 L70.3409299,37.702472 L70.3409299,29.4611636 C70.3409299,29.2933598 70.2885701,28.9766776 70.2885701,28.9766776 C71.019715,28.7073084 71.8139439,28.4789439 72.5842009,28.4789439 C73.9285234,28.4789439 74.8363037,29.1829626 74.8363037,30.567028 L74.8363037,37.702472 L77.5583832,37.702472 L77.5583832,30.1355327 C77.5583832,27.0002523 75.3781963,26.0956262 72.6062804,26.092472 C70.9231963,26.092472 69.0407664,26.6595981 67.4542009,27.2254626 C67.4542009,27.2254626 67.620743,28.2701355 67.620743,28.8189673 L67.620743,37.702472 Z" id="Fill-22" fill="#FFFFFF" mask="url(#mask-2)"></path>
            <path d="M133.986301,16.2945631 C130.198731,19.5446565 128.812143,27.2547967 131.681208,31.800007 C133.50497,28.6685117 134.549643,25.0367593 134.549643,21.146993 C134.549643,19.4733715 134.346512,17.8546332 133.986301,16.2945631" id="Fill-23" fill="#FFFFFF" mask="url(#mask-2)"></path>
            <path d="M92.1856963,19.6736005 C95.7202991,16.2878762 97.9238271,10.8632734 98.6158598,5.87899766 C94.9487804,9.41675467 92.5566308,14.2641379 92.1856963,19.6736005" id="Fill-24" fill="#FFFFFF" mask="url(#mask-2)"></path>
            <path d="M102.796633,2.7401215 C102.467334,2.93000467 102.142451,3.1268271 101.831446,3.33185047 C99.6544136,13.5798645 96.9203481,18.6764299 92.3253014,24.0568738 C92.4773341,25.1280421 92.7056986,26.1752383 93.0078715,27.1934159 C101.669951,21.860285 103.500652,9.97397664 102.796633,2.7401215" id="Fill-25" fill="#FFFFFF" mask="url(#mask-2)"></path>
            <path d="M120.047425,16.9013692 C119.786257,10.8225841 118.510696,5.14816822 116.48885,0.169570093 C116.085112,0.108378505 115.672542,0.0610654206 115.259972,0.0282616822 C117.205486,16.4995234 115.704715,31.2183084 105.909014,41.0171636 C107.590836,41.6511589 109.381164,42.0738224 111.244037,42.258028 C117.026327,37.1778645 120.558407,28.7428879 120.047425,16.9013692" id="Fill-26" fill="#FFFFFF" mask="url(#mask-2)"></path>
            <path d="M111.783028,-0.000126168224 C111.380551,0.0282616822 110.976813,0.0692663551 110.581276,0.119733645 C110.972397,10.9954346 109.605995,27.606743 98.8564626,36.6403879 C99.8134486,37.5380748 100.857491,38.3442897 101.97471,39.0520935 C115.368098,29.945271 115.300598,12.1366262 111.783028,-0.000126168224" id="Fill-27" fill="#FFFFFF" mask="url(#mask-2)"></path>
            <path d="M107.097897,0.870371495 C106.742734,0.978876168 106.388201,1.09621262 106.051332,1.22616589 C105.399042,12.5920304 102.9375,23.0980584 94.4533178,30.7962126 C94.9832243,31.8371005 95.5951402,32.8205818 96.2808645,33.7472874 C107.246776,27.1203014 109.494463,11.4268668 107.097897,0.870371495" id="Fill-28" fill="#FFFFFF" mask="url(#mask-2)"></path>
            <path d="M121.896168,17.2685187 C123.188131,13.0374673 125.796659,8.95971028 128.772967,6.59468692 C128.459439,6.26286449 128.138972,5.94618224 127.799579,5.63328505 C125.146893,6.93534112 122.866402,8.48721028 121.015514,10.2787991 C121.476659,12.5649673 121.790187,14.9123271 121.896168,17.2685187" id="Fill-29" fill="#FFFFFF" mask="url(#mask-2)"></path>
            <path d="M118.836841,34.7601659 C120.114925,36.5725724 121.761421,38.2241145 123.730276,39.6504463 C124.422308,39.2599556 125.091,38.8353995 125.72878,38.3742547 C123.395299,35.1853528 121.837752,31.7138341 121.172215,27.7534136 C120.64357,30.3436472 119.84871,32.6764977 118.836841,34.7601659" id="Fill-30" fill="#FFFFFF" mask="url(#mask-2)"></path>
            <path d="M123.856444,2.72870327 C123.479832,2.50790888 123.087449,2.29973131 122.69128,2.10858645 C121.567752,2.58108645 120.355276,3.17912383 119.281584,3.81059579 C119.605206,4.77578271 119.901701,5.75800234 120.174224,6.76797897 C121.364621,5.35741822 122.614949,3.86674065 123.856444,2.72870327" id="Fill-31" fill="#FFFFFF" mask="url(#mask-2)"></path>
            <path d="M132.226822,11.4831379 C132.011706,11.0680444 131.78965,10.6579977 131.551192,10.2593061 C126.657757,12.9990491 123.424696,17.5701238 122.937687,23.0742126 C122.506822,27.9329509 124.433411,32.8585584 128.139603,36.3559416 C128.705467,35.8020631 129.251145,35.210965 129.755187,34.5977874 C125.496379,26.2833014 126.828084,17.9896332 132.226822,11.4831379" id="Fill-32" fill="#FFFFFF" mask="url(#mask-2)"></path>
            <path d="M115.476287,39.9461846 C116.22825,40.6148762 117.014278,41.2671659 117.859605,41.874035 C118.74846,41.6980304 119.625329,41.4639883 120.470657,41.179479 C119.429138,40.0313481 118.405283,38.6409743 117.447666,37.2449229 C116.843951,38.2069556 116.187245,39.1077967 115.476287,39.9461846" id="Fill-33" fill="#FFFFFF" mask="url(#mask-2)"></path>
            <path d="M42.2980864,111.258294 L39.8870117,111.258294 L40.6875491,109.132991 C40.8831098,108.625794 41.1322921,107.870047 41.1322921,107.870047 C41.1322921,107.870047 41.3726425,108.635257 41.5499089,109.132991 L42.2980864,111.258294 Z M40.9089743,107.140794 L38.4461706,113.410724 L39.0681799,113.410724 L39.7179463,111.7125 L42.4570584,111.7125 L43.0532033,113.410724 L43.6846752,113.410724 L41.4073388,107.140794 L40.9089743,107.140794 Z" id="Fill-34" fill="#FFFFFF" mask="url(#mask-2)"></path>
            <polygon id="Fill-35" fill="#FFFFFF" mask="url(#mask-2)" points="44.6635514 113.410724 45.2054439 113.410724 45.2054439 108.963925 44.6635514 108.963925"></polygon>
            <polygon id="Fill-36" fill="#FFFFFF" mask="url(#mask-2)" points="44.6187617 107.69278 45.2502336 107.69278 45.2502336 107.007056 44.6187617 107.007056"></polygon>
            <path d="M47.1365748,109.702136 L47.0823224,108.964051 L46.6464112,108.964051 C46.6558738,109.115453 46.6735374,109.622019 46.6735374,109.773421 L46.6735374,113.41085 L47.2160607,113.41085 L47.2160607,110.235827 C47.5094019,109.719799 47.8387009,109.381668 48.3812243,109.381668 C48.5679533,109.381668 48.7187243,109.426458 48.8612944,109.505944 L49.0126963,108.947019 C48.8612944,108.892766 48.684028,108.866271 48.4966682,108.866271 C47.8475327,108.866271 47.4027897,109.194939 47.1365748,109.702136" id="Fill-37" fill="#FFFFFF" mask="url(#mask-2)"></path>
            <path d="M54.1534836,109.346657 C54.6695117,109.346657 55.0070117,109.523923 55.2744883,109.729577 L55.5236706,109.302498 C55.1142547,108.999063 54.6253528,108.865956 54.2424322,108.865956 C52.9353294,108.865956 52.1347921,109.773736 52.1347921,111.213946 C52.1347921,112.548175 52.8287173,113.508946 54.207736,113.508946 C54.6518481,113.508946 55.1237173,113.33168 55.4706799,113.091329 L55.2208668,112.66425 C54.9628528,112.841516 54.5805631,113.027614 54.1446519,113.027614 C53.3264509,113.027614 52.7044416,112.370909 52.7044416,111.213946 C52.7044416,109.88918 53.4160304,109.346657 54.1534836,109.346657" id="Fill-38" fill="#FFFFFF" mask="url(#mask-2)"></path>
            <path d="M58.3521729,113.055939 C57.4008645,113.055939 56.9384579,112.24657 56.9384579,111.169724 C56.9384579,110.102341 57.4361916,109.320098 58.3521729,109.320098 C59.2946495,109.320098 59.7665187,110.102341 59.7665187,111.169724 C59.7665187,112.24657 59.3123131,113.055939 58.3521729,113.055939 M58.3521729,108.865893 C57.0267757,108.865893 56.3688084,109.960402 56.3688084,111.169724 C56.3688084,112.442131 56.9914486,113.508883 58.3521729,113.508883 C59.7393925,113.508883 60.3361682,112.423836 60.3361682,111.169724 C60.3361682,109.933907 59.7311916,108.865893 58.3521729,108.865893" id="Fill-39" fill="#FFFFFF" mask="url(#mask-2)"></path>
            <path d="M63.3336098,108.866145 C62.737465,108.866145 62.2655958,109.185981 61.9993808,109.577734 L61.9545911,108.963925 L61.5010164,108.963925 C61.5098481,109.115327 61.5275117,109.631355 61.5275117,109.782757 L61.5275117,113.410724 L62.070035,113.410724 L62.070035,110.048972 C62.2838902,109.729136 62.6390537,109.327921 63.2263668,109.327921 C63.9474182,109.327921 64.2760864,109.782757 64.2760864,110.592126 L64.2760864,113.410724 L64.817979,113.410724 L64.817979,110.627453 C64.817979,109.550607 64.4180257,108.866145 63.3336098,108.866145" id="Fill-40" fill="#FFFFFF" mask="url(#mask-2)"></path>
            <path d="M69.0703528,112.255086 C68.8211706,112.646839 68.4388808,113.055624 67.8780631,113.055624 C67.0421986,113.055624 66.5614977,112.291044 66.5614977,111.188334 C66.5614977,109.791021 67.3450023,109.320414 67.9405164,109.320414 C68.509535,109.320414 68.7940444,109.568334 69.0703528,109.83518 L69.0703528,112.255086 Z M69.613507,107.007119 L69.0703528,107.007119 L69.0703528,109.364572 C68.8123388,109.097096 68.3764276,108.866208 67.8250724,108.866208 C66.8113107,108.866208 65.992479,109.729199 65.992479,111.169409 C65.992479,112.458848 66.5614977,113.508568 67.7443248,113.508568 C68.4477126,113.508568 68.8741612,113.081488 69.1328061,112.708661 L69.1775958,113.410787 L69.6393715,113.410787 C69.6305397,113.215857 69.613507,112.788778 69.613507,112.575554 L69.613507,107.007119 Z" id="Fill-41" fill="#FFFFFF" mask="url(#mask-2)"></path>
            <polygon id="Fill-42" fill="#FFFFFF" mask="url(#mask-2)" points="71.0264019 107.69278 71.6585047 107.69278 71.6585047 107.007056 71.0264019 107.007056"></polygon>
            <polygon id="Fill-43" fill="#FFFFFF" mask="url(#mask-2)" points="71.0711916 113.410724 71.6143458 113.410724 71.6143458 108.963925 71.0711916 108.963925"></polygon>
            <path d="M74.6305234,113.011591 C73.9801262,113.011591 73.7580701,112.646965 73.7580701,111.987736 L73.7580701,109.417689 L75.0039813,109.417689 L75.0039813,108.964114 L73.7580701,108.964114 L73.7580701,107.762993 L73.2149159,107.762993 L73.2149159,108.964114 L72.4326729,108.964114 L72.4326729,109.417689 L73.2149159,109.417689 L73.2149159,111.943577 C73.2149159,112.886054 73.5625093,113.49103 74.6305234,113.49103 C74.7995888,113.49103 74.9850561,113.455072 75.1629533,113.410914 L75.0380467,112.948507 C74.8879065,112.983834 74.7365047,113.011591 74.6305234,113.011591" id="Fill-44" fill="#FFFFFF" mask="url(#mask-2)"></path>
            <polygon id="Fill-45" fill="#FFFFFF" mask="url(#mask-2)" points="75.9463318 107.69278 76.5771729 107.69278 76.5771729 107.007056 75.9463318 107.007056"></polygon>
            <polygon id="Fill-46" fill="#FFFFFF" mask="url(#mask-2)" points="75.9904907 113.410724 76.5323832 113.410724 76.5323832 108.963925 75.9904907 108.963925"></polygon>
            <path d="M79.761028,113.055939 C78.8097196,113.055939 78.3466822,112.24657 78.3466822,111.169724 C78.3466822,110.102341 78.8444159,109.320098 79.761028,109.320098 C80.7035047,109.320098 81.1753738,110.102341 81.1753738,111.169724 C81.1753738,112.24657 80.7217991,113.055939 79.761028,113.055939 M79.761028,108.865893 C78.4362617,108.865893 77.7764019,109.960402 77.7764019,111.169724 C77.7764019,112.442131 78.4009346,113.508883 79.761028,113.508883 C81.1482477,113.508883 81.7450234,112.423836 81.7450234,111.169724 C81.7450234,109.933907 81.1400467,108.865893 79.761028,108.865893" id="Fill-47" fill="#FFFFFF" mask="url(#mask-2)"></path>
            <path d="M84.742465,108.866145 C84.1463201,108.866145 83.6757126,109.185981 83.408236,109.577734 L83.3640771,108.963925 L82.9105023,108.963925 C82.9187033,109.115327 82.9363668,109.631355 82.9363668,109.782757 L82.9363668,113.410724 L83.479521,113.410724 L83.479521,110.048972 C83.6927453,109.729136 84.0485397,109.327921 84.635222,109.327921 C85.3562734,109.327921 85.6849416,109.782757 85.6849416,110.592126 L85.6849416,113.410724 L86.227465,113.410724 L86.227465,110.627453 C86.227465,109.550607 85.8268808,108.866145 84.742465,108.866145" id="Fill-48" fill="#FFFFFF" mask="url(#mask-2)"></path>
            <polygon id="Fill-49" fill="#FFFFFF" mask="url(#mask-2)" points="87.6515888 107.69278 88.2824299 107.69278 88.2824299 107.007056 87.6515888 107.007056"></polygon>
            <polygon id="Fill-50" fill="#FFFFFF" mask="url(#mask-2)" points="87.6957477 113.410724 88.2370093 113.410724 88.2370093 108.963925 87.6957477 108.963925"></polygon>
            <path d="M91.5117056,108.866145 C90.9155607,108.866145 90.4430607,109.185981 90.1774766,109.577734 L90.1333178,108.963925 L89.6784813,108.963925 C89.6879439,109.115327 89.7056075,109.631355 89.7056075,109.782757 L89.7056075,113.410724 L90.2475,113.410724 L90.2475,110.048972 C90.461986,109.729136 90.8165187,109.327921 91.4044626,109.327921 C92.125514,109.327921 92.4541822,109.782757 92.4541822,110.592126 L92.4541822,113.410724 L92.9967056,113.410724 L92.9967056,110.627453 C92.9967056,109.550607 92.5961215,108.866145 91.5117056,108.866145" id="Fill-51" fill="#FFFFFF" mask="url(#mask-2)"></path>
            <path d="M97.1855537,110.396439 C97.1855537,111.143355 96.6878201,111.525645 95.9951565,111.525645 C95.2917687,111.525645 94.8198995,111.152187 94.8198995,110.422304 C94.8198995,109.754874 95.2476098,109.311393 95.9856939,109.311393 C96.6436612,109.311393 97.1855537,109.622397 97.1855537,110.396439 M95.3359276,113.126089 L96.6259977,113.331112 C97.1155304,113.410598 97.3741752,113.660411 97.3741752,114.078028 C97.3741752,114.602888 96.8120958,114.968145 96.0841051,114.968145 C95.3718855,114.968145 94.6066752,114.745458 94.6066752,114.060364 C94.6066752,113.571463 94.9359743,113.286953 95.3359276,113.126089 M95.9856939,108.866019 C94.9359743,108.866019 94.278007,109.515785 94.278007,110.431766 C94.278007,111.000785 94.5278201,111.402 94.901278,111.64172 C94.6609276,111.810154 94.4552734,112.032841 94.4552734,112.307888 C94.4552734,112.637187 94.6338014,112.851042 94.9631005,112.98415 C94.5454836,113.145014 94.0919089,113.535505 94.0919089,114.122187 C94.0919089,115.074126 94.9902266,115.412257 96.1011379,115.412257 C97.0354136,115.412257 97.9337313,114.932187 97.9337313,114.078028 C97.9337313,113.331112 97.4353668,112.958285 96.7679369,112.841579 L95.6034042,112.64665 C95.3006005,112.593028 94.9801332,112.495248 94.9801332,112.227771 C94.9801332,112.050505 95.06025,111.917397 95.2028201,111.810154 C95.4261379,111.899103 95.7548061,111.970388 96.021021,111.970388 C96.8568855,111.970388 97.720507,111.498519 97.720507,110.396439 C97.720507,109.960528 97.4801565,109.560575 97.1508575,109.337257 L97.9690584,109.356182 L98.0851332,108.857187 L96.4928902,108.91964 C96.3414883,108.884944 96.1730537,108.866019 95.9856939,108.866019" id="Fill-52" fill="#FFFFFF" mask="url(#mask-2)"></path>
            <path d="M102.959264,110.831972 C102.274171,110.618117 101.997862,110.458514 101.997862,110.013771 C101.997862,109.57786 102.335993,109.320477 102.932138,109.320477 C103.32389,109.320477 103.687255,109.426458 104.097932,109.710967 L104.355315,109.29335 C103.910572,108.991178 103.484124,108.866271 102.949171,108.866271 C102.166928,108.866271 101.428843,109.239729 101.428843,110.049098 C101.428843,110.858467 102.07861,111.152439 102.807862,111.365664 C103.465829,111.560593 103.847488,111.721458 103.847488,112.299939 C103.847488,112.699262 103.465829,113.055687 102.877886,113.055687 C102.318329,113.055687 101.935409,112.869589 101.553119,112.601481 L101.277442,113.02036 C101.669194,113.26828 102.095643,113.508631 102.905012,113.508631 C103.598937,113.508631 104.416507,113.135173 104.416507,112.272182 C104.416507,111.312673 103.66139,111.045196 102.959264,110.831972" id="Fill-53" fill="#FFFFFF" mask="url(#mask-2)"></path>
            <path d="M107.325883,113.055939 C106.374575,113.055939 105.911537,112.24657 105.911537,111.169724 C105.911537,110.102341 106.409271,109.320098 107.325883,109.320098 C108.26836,109.320098 108.740229,110.102341 108.740229,111.169724 C108.740229,112.24657 108.285393,113.055939 107.325883,113.055939 M107.325883,108.865893 C106.001117,108.865893 105.341888,109.960402 105.341888,111.169724 C105.341888,112.442131 105.964528,113.508883 107.325883,113.508883 C108.713103,113.508883 109.309248,112.423836 109.309248,111.169724 C109.309248,109.933907 108.704271,108.865893 107.325883,108.865893" id="Fill-54" fill="#FFFFFF" mask="url(#mask-2)"></path>
            <polygon id="Fill-55" fill="#FFFFFF" mask="url(#mask-2)" points="110.502547 113.410093 111.044439 113.410093 111.044439 107.007056 110.502547 107.007056"></polygon>
            <path d="M115.66964,108.964114 L115.127748,108.964114 L115.127748,112.362456 C114.931556,112.691124 114.503846,113.055119 114.014944,113.055119 C113.321019,113.055119 113.009383,112.681661 113.009383,111.872292 L113.009383,108.964114 L112.467491,108.964114 L112.467491,111.961871 C112.467491,112.877222 112.921065,113.508694 113.917794,113.508694 C114.459687,113.508694 114.90443,113.242479 115.188939,112.850727 L115.224897,113.410914 L115.696766,113.410914 C115.686673,113.260143 115.66964,112.762409 115.66964,112.610376 L115.66964,108.964114 Z" id="Fill-56" fill="#FFFFFF" mask="url(#mask-2)"></path>
            <path d="M118.640334,113.011591 C117.991199,113.011591 117.767881,112.646965 117.767881,111.987736 L117.767881,109.417689 L119.013792,109.417689 L119.013792,108.964114 L117.767881,108.964114 L117.767881,107.762993 L117.225988,107.762993 L117.225988,108.964114 L116.443745,108.964114 L116.443745,109.417689 L117.225988,109.417689 L117.225988,111.943577 C117.225988,112.886054 117.573582,113.49103 118.640334,113.49103 C118.8094,113.49103 118.996759,113.455072 119.174026,113.410914 L119.049119,112.948507 C118.897717,112.983834 118.746315,113.011591 118.640334,113.011591" id="Fill-57" fill="#FFFFFF" mask="url(#mask-2)"></path>
            <polygon id="Fill-58" fill="#FFFFFF" mask="url(#mask-2)" points="120.000491 113.410724 120.541752 113.410724 120.541752 108.963925 120.000491 108.963925"></polygon>
            <polygon id="Fill-59" fill="#FFFFFF" mask="url(#mask-2)" points="119.956332 107.69278 120.587173 107.69278 120.587173 107.007056 119.956332 107.007056"></polygon>
            <path d="M123.773299,113.055939 C122.820729,113.055939 122.357692,112.24657 122.357692,111.169724 C122.357692,110.102341 122.856687,109.320098 123.773299,109.320098 C124.715776,109.320098 125.186383,110.102341 125.186383,111.169724 C125.186383,112.24657 124.732808,113.055939 123.773299,113.055939 M123.773299,108.865893 C122.447271,108.865893 121.788673,109.960402 121.788673,111.169724 C121.788673,112.442131 122.411944,113.508883 123.773299,113.508883 C125.159257,113.508883 125.756033,112.423836 125.756033,111.169724 C125.756033,109.933907 125.152318,108.865893 123.773299,108.865893" id="Fill-60" fill="#FFFFFF" mask="url(#mask-2)"></path>
            <path d="M128.753537,108.866145 C128.157393,108.866145 127.686154,109.185981 127.419308,109.577734 L127.374519,108.963925 L126.921575,108.963925 C126.929776,109.115327 126.948701,109.631355 126.948701,109.782757 L126.948701,113.410724 L127.490593,113.410724 L127.490593,110.048972 C127.703818,109.729136 128.059612,109.327921 128.646294,109.327921 C129.367346,109.327921 129.696014,109.782757 129.696014,110.592126 L129.696014,113.410724 L130.238537,113.410724 L130.238537,110.627453 C130.238537,109.550607 129.839215,108.866145 128.753537,108.866145" id="Fill-61" fill="#FFFFFF" mask="url(#mask-2)"></path>
            <path d="M132.942701,110.831972 C132.257607,110.618117 131.982561,110.458514 131.982561,110.013771 C131.982561,109.57786 132.31943,109.320477 132.915575,109.320477 C133.307327,109.320477 133.671953,109.426458 134.081369,109.710967 L134.338752,109.29335 C133.894009,108.991178 133.467561,108.866271 132.932607,108.866271 C132.150364,108.866271 131.413542,109.239729 131.413542,110.049098 C131.413542,110.858467 132.061416,111.152439 132.791299,111.365664 C133.450528,111.560593 133.832187,111.721458 133.832187,112.299939 C133.832187,112.699262 133.450528,113.055687 132.862584,113.055687 C132.301766,113.055687 131.920107,112.869589 131.536556,112.601481 L131.26214,113.02036 C131.652631,113.26828 132.079079,113.508631 132.888449,113.508631 C133.583636,113.508631 134.401206,113.135173 134.401206,112.272182 C134.401206,111.312673 133.644827,111.045196 132.942701,110.831972" id="Fill-62" fill="#FFFFFF" mask="url(#mask-2)"></path>
            <path d="M116.103343,91.5334065 C116.095773,91.5334065 116.103343,96.3139206 116.103343,96.2968879 L109.731217,96.2968879 L109.731217,91.5334065 L106.580166,91.5334065 C106.588998,91.5334065 106.580166,103.447472 106.580166,103.447472 L109.731217,103.447472 C109.731217,103.450626 109.734371,98.226 109.731217,98.2077056 C109.731217,98.2077056 116.103343,98.2203224 116.103343,98.2077056 L116.103343,103.447472 C116.107129,103.450626 119.255026,103.450626 119.262596,103.447472 C119.274582,103.436117 119.262596,91.5334065 119.262596,91.5334065 L116.103343,91.5334065 Z" id="Fill-63" fill="#FFFFFF" mask="url(#mask-2)"></path>
            <path d="M74.9558481,103.447346 L74.9558481,93.5601729 L79.7830444,93.5601729 L79.7830444,91.5332804 C79.7830444,91.5332804 66.9820164,91.5376963 66.9757079,91.5332804 C66.9820164,91.5376963 66.9757079,93.5601729 66.9757079,93.5601729 L71.8029042,93.5601729 L71.8029042,103.447346 L74.9558481,103.447346 Z" id="Fill-64" fill="#FFFFFF" mask="url(#mask-2)"></path>
            <path d="M82.348486,98.9790981 L84.5438131,93.5601729 L86.7422944,98.9790981 L82.348486,98.9790981 Z M92.0464065,103.447346 L86.4773411,91.5332804 C86.4773411,91.5332804 82.6058692,91.5408505 82.6058692,91.5332804 L77.0405888,103.447346 C77.0405888,103.447346 80.5581589,103.4505 80.5543738,103.447346 C80.5732991,103.4505 81.5857991,100.8855 81.5857991,100.8855 L87.5049813,100.8855 C87.5049813,100.8855 88.5389299,103.447346 88.5326215,103.447346 C88.5136963,103.447346 92.0609159,103.4505 92.0464065,103.447346 Z" id="Fill-65" fill="#FFFFFF" mask="url(#mask-2)"></path>
            <polygon id="Fill-66" fill="#FFFFFF" mask="url(#mask-2)" points="121.761168 103.44722 124.921682 103.44722 124.921682 91.5331542 121.761168 91.5331542"></polygon>
            <path d="M50.6601379,98.2077687 C50.6601379,98.2077687 57.0316332,98.2203855 57.0316332,98.2077687 L57.0316332,103.447535 C57.0360491,103.450689 60.1858388,103.450689 60.1883621,103.447535 C60.1990864,103.43618 60.1883621,91.5334696 60.1883621,91.5334696 L57.0316332,91.5334696 C57.0253248,91.5334696 57.0316332,96.3139836 57.0316332,96.2969509 L50.6601379,96.2969509 C50.6563528,96.3348014 50.6601379,91.5334696 50.6601379,91.5334696 L47.5059322,91.5334696 C47.5204416,91.5334696 47.5059322,103.447535 47.5059322,103.447535 L50.6601379,103.447535 C50.6563528,103.450689 50.6626612,98.2260631 50.6601379,98.2077687" id="Fill-67" fill="#FFFFFF" mask="url(#mask-2)"></path>
            <polygon id="Fill-68" fill="#FFFFFF" mask="url(#mask-2)" points="62.691729 103.44722 65.8434112 103.44722 65.8434112 91.5331542 62.691729 91.5331542"></polygon>
            <path d="M101.379701,100.434827 C101.117271,101.024664 100.614491,101.474453 99.9950047,101.671276 C99.5363832,101.818893 99.0449579,101.898379 98.5447009,101.898379 C97.9422477,101.898379 97.3707056,101.783565 96.8477383,101.58485 C96.0125047,101.266276 95.3621075,100.568565 95.1192336,99.7068364 C94.9369206,99.0381449 94.8221075,98.3360187 94.8221075,97.6073972 C94.8221075,96.7317897 94.9810794,95.8839393 95.2523411,95.1054813 C95.5368505,94.2898037 96.1676916,93.633729 96.9770607,93.3530047 C97.4691168,93.1788925 97.9939766,93.0874206 98.5447009,93.0874206 C99.0228785,93.0874206 99.4833925,93.1587056 99.9167804,93.2918131 C100.603766,93.5012523 101.150706,94.0097103 101.399257,94.6651542 C101.510285,94.9502944 101.558229,95.2682383 101.575262,95.5868131 L104.884023,95.5868131 C104.865098,95.3300607 104.820939,95.078986 104.772995,94.8310654 C104.518136,93.5895701 103.657668,92.5644533 102.518369,92.0805981 C101.298322,91.5506916 99.950215,91.2377944 98.5447009,91.2377944 C97.3076215,91.2377944 96.1317336,91.4642664 95.0416402,91.8736822 C93.8979252,92.3007617 92.9485093,93.1044533 92.3309159,94.1396636 C91.7297243,95.1433318 91.5082991,96.3583318 91.5082991,97.6073972 C91.5082991,98.5038224 91.6559159,99.3453645 91.9391636,100.146533 C92.465285,101.658659 93.8020374,102.762631 95.3375047,103.250902 C96.348743,103.566322 97.4255888,103.739173 98.5447009,103.739173 C99.9760794,103.739173 101.347528,103.440154 102.593439,102.915294 C103.693626,102.450995 104.518136,101.46436 104.803907,100.285318 C104.887178,99.9276308 104.940799,99.5440794 104.965402,99.1598972 L101.630776,99.1598972 C101.630776,99.6141028 101.550028,100.044967 101.379701,100.434827" id="Fill-69" fill="#FFFFFF" mask="url(#mask-2)"></path>
        </g>
    </g>
</svg>